<?xml version="1.0" encoding="utf-8"?>
<!-- Generator: Adobe Illustrator 26.3.1, SVG Export Plug-In . SVG Version: 6.00 Build 0)  -->
<svg version="1.1" id="Layer_1" xmlns="http://www.w3.org/2000/svg" xmlns:xlink="http://www.w3.org/1999/xlink" x="0px" y="0px"
	 viewBox="0 0 64 64" style="enable-background:new 0 0 64 64;" xml:space="preserve">
<g>
	<path d="M16,11.6c-0.3,0-0.7,0.1-0.9,0.4c-0.7,0.6-3.4,1.1-5.6,1.1c-0.8,0-1.4,0.6-1.4,1.4v2.2c-0.9-0.8-1.3-2-1.3-3.2
		c0-1,0.3-1.9,0.9-2.7C7.1,9,8.1,7.1,9.8,6.6s3.6,0.3,4.2,2.1C14,8.7,14,8.8,14.1,9h3.6c2.5,0,4.5,2,4.5,4.5c0,1.2-0.5,2.4-1.3,3.2
		v-2.2c0-0.8-0.6-1.4-1.4-1.4l-0.1,0l-0.1,0c-0.1,0-0.3,0-0.5,0c-0.6,0.1-1.2-0.2-1.5-0.7c-0.2-0.4-0.5-0.7-1-0.8 M12.6,21.2
		c0,1,0.8,1.8,1.8,1.8c1,0,1.8-0.8,1.8-1.8v0L12.6,21.2L12.6,21.2z M19.8,14.5V20c0,2.9-2.4,5.3-5.3,5.3c-2.9,0-5.3-2.4-5.3-5.3
		c0,0,0,0,0,0v-5.6c0-0.2,0.2-0.4,0.4-0.4c1.3,0,5.1-0.3,6.3-1.4c0.2-0.1,0.4-0.1,0.5,0c0,0,0,0.1,0.1,0.1c0.6,1,1.8,1.5,3,1.2
		c0.1,0,0.2,0,0.3,0.1C19.7,14.2,19.8,14.4,19.8,14.5z M11.7,17.9c0-0.5,0.4-0.9,0.9-0.9c0.5,0,0.9,0.4,0.9,0.9
		c0,0.2,0.2,0.4,0.4,0.4s0.4-0.2,0.4-0.4c0-0.9-0.7-1.6-1.6-1.6c-0.9,0-1.6,0.7-1.6,1.6c0,0.2,0.2,0.4,0.4,0.4S11.7,18.2,11.7,17.9z
		 M16.9,20.7c0-0.2-0.2-0.4-0.4-0.4h-4.3c-0.2,0-0.4,0.2-0.4,0.4v0.4c0,1.4,1.1,2.5,2.5,2.5c1.4,0,2.5-1.1,2.5-2.5V20.7z M18,17.9
		c0-0.9-0.7-1.6-1.6-1.6c-0.9,0-1.6,0.7-1.6,1.6c0,0.2,0.2,0.4,0.4,0.4s0.4-0.2,0.4-0.4c0-0.5,0.4-0.9,0.9-0.9
		c0.5,0,0.9,0.4,0.9,0.9c0,0.2,0.2,0.4,0.4,0.4S18,18.2,18,17.9z M14.5,26.3c-0.8,0-1.6-0.2-2.4-0.5v0.9c0,0.1,0.1,0.2,0.1,0.3
		c1.3,1,3.1,1,4.4,0c0.1-0.1,0.1-0.2,0.1-0.3v-0.9C16.1,26.2,15.3,26.3,14.5,26.3z M30.6,23.2c-0.5-0.9-1.6-1.2-2.4-0.7
		c-0.4,0.2-0.7,0.6-0.8,1.1l-1.7,5.8l-1.5-0.4L23.3,32l3.2,0.9c0.9,0.3,1.9-0.3,2.2-1.2l2.1-7.2C30.9,24.1,30.8,23.6,30.6,23.2z
		 M23.3,28.4l-1,3.6c-0.1,0.2-0.3,0.3-0.5,0.3c0,0-0.1,0-0.1-0.1l-1.9-1.3v6.4c0,0.2-0.2,0.4-0.4,0.4h-10c-0.2,0-0.4-0.2-0.4-0.4
		v-3.8c0,0,0,0-0.1,0H5.7c-0.2,0-0.4-0.2-0.4-0.4v-3.5c0-2.2,1.8-4,4-4h1.8v1.2c0,0.4,0.2,0.8,0.5,1.1c1.7,1.3,4,1.3,5.7,0
		c0.3-0.3,0.5-0.7,0.5-1.1v-1.2l0.1,0c2,0.2,3.9,1,5.3,2.5C23.3,28.1,23.3,28.2,23.3,28.4z M15.1,35.7c0-0.3-0.3-0.6-0.6-0.6
		c-0.3,0-0.6,0.3-0.6,0.6c0,0.3,0.3,0.6,0.6,0.6C14.8,36.3,15.1,36,15.1,35.7z M15.1,33c0-0.3-0.3-0.6-0.6-0.6
		c-0.3,0-0.6,0.3-0.6,0.6c0,0.3,0.3,0.6,0.6,0.6C14.8,33.6,15.1,33.3,15.1,33z M15.1,30.3c0-0.3-0.3-0.6-0.6-0.6s-0.6,0.3-0.6,0.6
		c0,0.3,0.3,0.6,0.6,0.6C14.8,30.9,15.1,30.6,15.1,30.3z M7.8,40l0.4-2.8l0-0.1v-2.8H5.7c-0.1,0-0.2,0-0.3,0l-0.3,2
		c-0.2,1,0.3,2,1.1,2.6L7.8,40z M19.5,38.6h-10c-0.2,0-0.4,0-0.5-0.1L7.1,53.1c0,0.2,0.1,0.4,0.3,0.4c0,0,0,0,0,0H11
		c0.2,0,0.3-0.1,0.4-0.3l3.1-12.5l3.1,12.5c0,0.2,0.2,0.3,0.4,0.3h3.6c0.2,0,0.4-0.2,0.4-0.4c0,0,0,0,0,0L20,38.4
		C19.8,38.5,19.6,38.6,19.5,38.6L19.5,38.6z M7.5,54.5c-0.4,0-0.8-0.2-1-0.5c0,0,0-0.1-0.1-0.1H5.9c-0.9,0-1.7,0.8-1.7,1.7
		s0.8,1.7,1.7,1.7h3.4c0.9,0,1.7-0.8,1.7-1.7v-1.1H7.5z M23,53.9h-0.5c0,0,0,0.1-0.1,0.1c-0.3,0.3-0.6,0.5-1,0.5H18l0,1.1
		c0,0.9,0.8,1.7,1.7,1.7H23c0.9,0,1.7-0.8,1.7-1.7S24,53.9,23,53.9z"/>
	<path d="M47.7,11.7c-0.4,0.1-0.8,0.4-1,0.8c-0.3,0.5-0.9,0.8-1.5,0.7c-0.2,0-0.3,0-0.5,0l-0.1,0l-0.1,0c-0.8,0-1.4,0.6-1.4,1.4v2.2
		c-1.8-1.7-1.8-4.6-0.1-6.3C44,9.4,45.2,9,46.4,9h3.6c0.4-1.8,2.2-2.9,3.9-2.5c1.8,0.4,2.9,2.2,2.5,3.9c0,0.1-0.1,0.2-0.1,0.3
		c0.6,0.8,0.9,1.7,0.9,2.7c0,1.2-0.5,2.3-1.3,3.2v-2.2c0-0.8-0.6-1.4-1.4-1.4c-2.2,0-4.9-0.5-5.6-1.1c-0.3-0.2-0.6-0.4-0.9-0.4
		 M51.4,21.1h-3.5v0c0,1,0.8,1.8,1.8,1.8C50.6,22.9,51.4,22.1,51.4,21.1L51.4,21.1z M44.3,14.2c0.1-0.1,0.2-0.1,0.3-0.1
		c1.2,0.3,2.4-0.2,3-1.2c0.1-0.2,0.3-0.3,0.5-0.2c0,0,0.1,0,0.1,0.1c1.2,1.1,4.9,1.3,6.3,1.4c0.2,0,0.4,0.2,0.4,0.4V20
		c0,2.9-2.4,5.3-5.3,5.3c-2.9,0-5.3-2.4-5.3-5.3c0,0,0,0,0,0v-5.6C44.2,14.4,44.3,14.2,44.3,14.2z M52.7,18.3c0.2,0,0.4-0.2,0.4-0.4
		c0-0.9-0.7-1.6-1.6-1.6c-0.9,0-1.6,0.7-1.6,1.6c0,0.2,0.2,0.4,0.4,0.4s0.4-0.2,0.4-0.4c0-0.5,0.4-0.9,0.9-0.9
		c0.5,0,0.9,0.4,0.9,0.9C52.3,18.2,52.5,18.3,52.7,18.3z M47.1,21.2c0,1.4,1.1,2.5,2.5,2.5c1.4,0,2.5-1.1,2.5-2.5v-0.4
		c0-0.2-0.2-0.4-0.4-0.4h-4.3c-0.2,0-0.4,0.2-0.4,0.4L47.1,21.2z M46.4,18.3c0.2,0,0.4-0.2,0.4-0.4c0-0.5,0.4-0.9,0.9-0.9
		c0.5,0,0.9,0.4,0.9,0.9c0,0.2,0.2,0.4,0.4,0.4s0.4-0.2,0.4-0.4c0-0.9-0.7-1.6-1.6-1.6c-0.9,0-1.6,0.7-1.6,1.6
		C46,18.2,46.2,18.3,46.4,18.3L46.4,18.3z M47.2,25.9v0.9c0,0.1,0.1,0.2,0.1,0.3c1.3,1,3.1,1,4.4,0c0.1-0.1,0.1-0.2,0.1-0.3v-0.9
		C50.4,26.5,48.7,26.5,47.2,25.9z M33.3,24.6l2.1,7.2c0.3,0.9,1.3,1.5,2.2,1.2c0,0,0,0,0,0l3.2-0.9l-0.9-3.1l-1.5,0.4l-1.7-5.8
		c-0.3-0.9-1.3-1.5-2.2-1.2C33.5,22.6,33,23.6,33.3,24.6z M40.8,28c1.4-1.4,3.3-2.3,5.3-2.5l0.1,0v1.2c0,0.4,0.2,0.8,0.5,1.1
		c1.7,1.3,4,1.3,5.7,0c0.3-0.3,0.5-0.7,0.5-1.1v-1.2h1.8c2.2,0,4,1.8,4,4V33c0,0.2-0.2,0.4-0.4,0.4H55c0,0,0,0-0.1,0v3.8
		c0,0.2-0.2,0.4-0.4,0.4h-10c-0.2,0-0.4-0.2-0.4-0.4v-6.4l-1.9,1.3c-0.2,0.1-0.4,0.1-0.5-0.1c0,0,0-0.1-0.1-0.1l-1-3.6
		C40.7,28.2,40.7,28.1,40.8,28L40.8,28z M49.5,36.3c0.3,0,0.6-0.3,0.6-0.6s-0.3-0.6-0.6-0.6c-0.3,0-0.6,0.3-0.6,0.6
		C48.9,36,49.2,36.3,49.5,36.3L49.5,36.3z M49.5,33.6c0.3,0,0.6-0.3,0.6-0.6s-0.3-0.6-0.6-0.6c-0.3,0-0.6,0.3-0.6,0.6
		C48.9,33.3,49.2,33.6,49.5,33.6L49.5,33.6z M49.5,30.9c0.3,0,0.6-0.3,0.6-0.6s-0.3-0.6-0.6-0.6c-0.3,0-0.6,0.3-0.6,0.6
		C48.9,30.6,49.2,30.9,49.5,30.9L49.5,30.9z M57.8,38.9c0.9-0.6,1.3-1.6,1.1-2.6l-0.3-2c-0.1,0-0.2,0-0.3,0h-2.4v2.8l0,0.1l0.4,2.8
		L57.8,38.9z M44,38.4l-1.9,14.6c0,0.2,0.1,0.4,0.3,0.4c0,0,0,0,0,0h3.6c0.2,0,0.3-0.1,0.4-0.3l3.1-12.5l3.1,12.5
		c0,0.2,0.2,0.3,0.4,0.3h3.6c0.2,0,0.4-0.2,0.4-0.4c0,0,0,0,0,0L55,38.4c-0.2,0.1-0.3,0.1-0.5,0.1h-10C44.4,38.6,44.2,38.5,44,38.4
		L44,38.4z M53.1,54.5v1.1c0,0.9,0.8,1.7,1.7,1.7h3.4c0.9,0,1.7-0.8,1.7-1.7s-0.8-1.7-1.7-1.7h-0.5c0,0,0,0.1-0.1,0.1
		c-0.3,0.3-0.6,0.5-1,0.5H53.1z M39.3,55.6c0,0.9,0.8,1.7,1.7,1.7h3.4c0.9,0,1.7-0.8,1.7-1.7l0-1.1h-3.5c-0.4,0-0.8-0.2-1-0.5
		c0,0,0-0.1-0.1-0.1H41C40,53.9,39.3,54.7,39.3,55.6z"/>
</g>
</svg>
